<?xml version="1.0" standalone="no"?>
<!DOCTYPE svg PUBLIC "-//W3C//DTD SVG 20010904//EN"
 "http://www.w3.org/TR/2001/REC-SVG-20010904/DTD/svg10.dtd">
<svg version="1.0" xmlns="http://www.w3.org/2000/svg"
 width="974.000000pt" height="974.000000pt" viewBox="0 0 974.000000 974.000000"
 preserveAspectRatio="xMidYMid meet">
<metadata>
Created by potrace 1.11, written by Peter Selinger 2001-2013
</metadata>
<g transform="translate(0.000000,974.000000) scale(0.100000,-0.100000)"
fill="#000000" stroke="none">
<path d="M4618 9735 c-1 -1 -52 -6 -113 -9 -60 -4 -119 -9 -130 -11 -11 -2
-45 -7 -75 -9 -89 -9 -253 -33 -340 -51 -14 -3 -41 -8 -60 -11 -19 -3 -115
-26 -214 -50 -235 -58 -473 -137 -686 -227 -41 -18 -77 -32 -80 -32 -15 -1
-343 -166 -450 -227 -172 -97 -446 -279 -560 -371 -8 -7 -35 -28 -60 -47 -25
-19 -50 -39 -56 -45 -6 -5 -30 -26 -54 -45 -101 -81 -399 -370 -516 -500 -78
-88 -251 -306 -327 -415 -42 -60 -80 -115 -84 -121 -5 -5 -13 -19 -20 -30 -7
-10 -39 -62 -71 -114 -257 -414 -458 -892 -576 -1370 -25 -102 -47 -196 -50
-210 -2 -14 -11 -63 -20 -110 -8 -47 -18 -105 -21 -130 -3 -25 -8 -54 -9 -65
-2 -11 -7 -49 -11 -85 -4 -36 -9 -76 -11 -90 -19 -118 -26 -660 -11 -845 59
-740 259 -1404 614 -2035 74 -131 76 -135 206 -330 249 -376 545 -702 957
-1054 57 -48 302 -228 400 -292 212 -140 474 -284 710 -389 321 -143 762 -280
1069 -331 18 -3 43 -8 55 -10 46 -10 214 -34 271 -39 33 -3 69 -8 81 -10 55
-12 275 -20 514 -20 233 1 337 5 470 20 19 2 62 6 95 10 208 22 590 100 787
161 456 140 824 305 1180 528 54 34 107 65 118 71 11 5 20 13 20 17 0 5 5 8
10 8 6 0 16 4 23 10 7 5 66 49 132 96 223 161 354 273 575 492 85 84 187 189
225 234 39 45 75 86 80 92 6 6 55 67 108 136 119 152 251 346 341 500 37 63
72 122 77 130 13 21 192 380 206 416 7 16 26 63 43 104 93 226 205 586 244
785 3 11 9 40 15 65 21 95 51 281 66 410 3 30 8 69 10 85 27 205 27 823 1 985
-3 14 -7 52 -11 85 -3 33 -7 71 -10 85 -2 14 -7 47 -10 75 -3 27 -13 83 -21
125 -8 41 -17 91 -20 110 -3 19 -26 116 -51 215 -54 215 -131 453 -215 659
-58 143 -220 475 -273 561 -14 22 -32 54 -40 70 -70 141 -337 509 -529 731
-62 71 -356 368 -436 440 -69 61 -244 202 -350 281 -94 70 -354 243 -364 243
-3 0 -32 17 -63 37 -95 60 -427 226 -587 292 -134 55 -449 167 -499 177 -11 2
-34 8 -51 13 -40 13 -174 48 -206 55 -14 2 -57 11 -95 20 -104 22 -118 25
-255 46 -141 21 -179 26 -266 35 -33 3 -83 8 -110 11 -57 6 -630 14 -636 9z"/>
</g>
</svg>
